<svg width="55" height="55" viewBox="0 0 55 55" xmlns="http://www.w3.org/2000/svg">
<path d="M29.7915 13.75H32.0832V11.4583C32.0832 10.8505 31.8418 10.2677 31.412 9.83788C30.9822 9.40811 30.3993 9.16667 29.7915 9.16667H22.9165C22.3088 9.16667 21.7259 9.40811 21.2961 9.83788C20.8663 10.2677 20.6249 10.8505 20.6249 11.4583V13.75H22.9165V18.4983L9.81967 41.1812C9.40178 41.8768 9.17604 42.6708 9.16551 43.4822C9.15498 44.2935 9.36004 45.0932 9.75973 45.7993C10.1594 46.5055 10.7394 47.0929 11.4405 47.5015C12.1415 47.9101 12.9384 48.1253 13.7499 48.125H38.9582C39.7696 48.1253 40.5666 47.9101 41.2676 47.5015C41.9687 47.0929 42.5487 46.5055 42.9484 45.7993C43.3481 45.0932 43.5531 44.2935 43.5426 43.4822C43.532 42.6708 43.3063 41.8768 42.8884 41.1812L29.7915 18.4983V13.75ZM13.7499 50.4167C12.5121 50.417 11.2973 50.0831 10.2335 49.4503C9.16978 48.8175 8.29658 47.9093 7.7061 46.8215C7.11561 45.7337 6.82974 44.5067 6.87866 43.2699C6.92759 42.0332 7.30948 40.8326 7.98404 39.7948L20.6249 17.9002V16.0417C20.0171 16.0417 19.4342 15.8002 19.0044 15.3705C18.5747 14.9407 18.3332 14.3578 18.3332 13.75V11.4583C18.3332 10.2428 18.8161 9.07697 19.6756 8.21743C20.5352 7.35789 21.701 6.875 22.9165 6.875H29.7915C31.0071 6.875 32.1729 7.35789 33.0324 8.21743C33.892 9.07697 34.3749 10.2428 34.3749 11.4583V13.75C34.3749 14.3578 34.1334 14.9407 33.7037 15.3705C33.2739 15.8002 32.691 16.0417 32.0832 16.0417V17.9002L44.724 39.7948C45.3986 40.8326 45.7805 42.0332 45.8294 43.2699C45.8783 44.5067 45.5925 45.7337 45.002 46.8215C44.4115 47.9093 43.5383 48.8175 42.4745 49.4503C41.4108 50.0831 40.1959 50.417 38.9582 50.4167H13.7499ZM28.1736 35.0442L31.8999 31.3179L38.9582 43.5417H13.7499L22.1374 29.0125L28.1736 35.0442ZM28.1736 38.2846L22.6301 32.7433L17.719 41.25H34.989L31.4095 35.0487L28.1736 38.2846ZM27.4999 22.9167C28.1077 22.9167 28.6906 23.1581 29.1203 23.5879C29.5501 24.0177 29.7915 24.6005 29.7915 25.2083C29.7915 25.8161 29.5501 26.399 29.1203 26.8288C28.6906 27.2586 28.1077 27.5 27.4999 27.5C26.8921 27.5 26.3092 27.2586 25.8794 26.8288C25.4497 26.399 25.2082 25.8161 25.2082 25.2083C25.2082 24.6005 25.4497 24.0177 25.8794 23.5879C26.3092 23.1581 26.8921 22.9167 27.4999 22.9167Z"/>
</svg>
