<svg width="45" height="40" viewBox="0 0 45 40"  xmlns="http://www.w3.org/2000/svg">
<path d="M7.45825 0.166748H37.2499C39.0733 0.166748 40.822 0.891077 42.1113 2.18039C43.4006 3.4697 44.1249 5.21838 44.1249 7.04175V32.2501C44.1249 34.0734 43.4006 35.8221 42.1113 37.1114C40.822 38.4008 39.0733 39.1251 37.2499 39.1251H7.45825C5.63489 39.1251 3.88621 38.4008 2.59689 37.1114C1.30758 35.8221 0.583252 34.0734 0.583252 32.2501V7.04175C0.583252 5.21838 1.30758 3.4697 2.59689 2.18039C3.88621 0.891077 5.63489 0.166748 7.45825 0.166748ZM7.45825 2.45841C6.24268 2.45841 5.07689 2.9413 4.21735 3.80084C3.3578 4.66038 2.87492 5.82617 2.87492 7.04175H41.8333C41.8333 5.82617 41.3504 4.66038 40.4908 3.80084C39.6313 2.9413 38.4655 2.45841 37.2499 2.45841H7.45825ZM2.87492 32.2501C2.87492 33.4657 3.3578 34.6314 4.21735 35.491C5.07689 36.3505 6.24268 36.8334 7.45825 36.8334H37.2499C38.4655 36.8334 39.6313 36.3505 40.4908 35.491C41.3504 34.6314 41.8333 33.4657 41.8333 32.2501V9.33341H2.87492V32.2501ZM34.9583 32.2501H23.4999V29.9584H34.9583V32.2501ZM9.74992 15.0626L11.3701 13.4424L21.0112 23.0834L11.3701 32.7245L9.74992 31.1042L17.7708 23.0834L9.74992 15.0626Z"/>
</svg>
